<?xml version="1.0" encoding="UTF-8"?>
<svg width="372px" height="71px" viewBox="0 0 372 71" xmlns="http://www.w3.org/2000/svg" xmlns:xlink="http://www.w3.org/1999/xlink" version="1.1">
 <!-- Generated by Pixelmator Pro 1.2 -->
 <path id="path" d="M183.28 70.96 C168.112 70.96 159.087 61.839 159.087 49.071 159.087 33.616 168.976 21.04 186.64 21.04 199.792 21.04 208.719 28.049 209.007 38.609 L193.36 41.105 C193.648 36.113 191.728 32.753 186.544 32.753 179.44 32.753 175.025 42.161 175.025 50.513 175.025 55.985 178.192 59.441 183.376 59.441 186.832 59.441 190.095 56.943 191.343 52.911 L205.937 57.616 C202.289 65.872 194.128 70.96 183.28 70.96 Z M236.655 70.96 C221.967 70.96 212.944 61.551 212.944 49.167 212.944 33.615 222.832 21.04 240.304 21.04 254.992 21.04 264.017 30.351 264.017 42.831 264.017 58.287 254.127 70.96 236.655 70.96 Z M15.472 70.864 C3.952 70.864 -0.752 64.048 1.743 53.392 L13.743 1.648 30.064 1.648 18.159 53.2 C17.103 57.52 18.543 59.536 22.671 59.536 24.207 59.536 25.264 59.439 26.128 59.151 L23.247 69.712 C21.135 70.576 18.928 70.864 15.472 70.864 Z M81.712 70.864 C69.808 70.864 62.799 64.625 65.583 52.433 L69.903 33.616 60.976 33.616 63.663 21.999 72.495 21.999 74.896 11.632 92.368 7.025 88.911 21.999 101.968 21.999 99.28 33.616 86.224 33.616 81.903 52.048 C80.655 57.04 83.439 59.536 88.335 59.536 91.215 59.536 92.848 58.961 94.384 58.193 L93.423 68.655 C89.967 70.287 85.936 70.864 81.712 70.864 Z M127.216 70.864 C113.008 70.864 103.407 62.224 103.407 49.071 103.407 32.944 113.775 21.136 130.671 21.136 144.687 21.136 152.751 29.488 152.751 42.544 152.751 45.04 152.56 47.728 151.792 50.319 L118.575 50.319 C118.671 56.271 122.416 59.536 127.888 59.536 132.496 59.536 135.184 57.136 136.72 53.968 L150.159 59.247 C146.703 66.543 137.968 70.864 127.216 70.864 Z M326.991 70.864 C317.391 70.864 310.288 63.951 310.288 51.568 310.288 36.112 319.503 21.04 333.999 21.04 340.431 21.04 346.383 24.304 347.919 32.079 L354.929 1.648 371.247 1.648 355.407 69.999 340.624 69.999 342.255 60.976 C339.183 67.12 333.519 70.864 326.991 70.864 Z M29.583 69.999 L40.72 21.999 57.04 21.999 45.903 69.999 29.583 69.999 Z M267.28 69.999 L278.415 21.999 292.911 21.999 290.991 33.04 C294.351 25.745 299.92 21.04 307.696 21.04 309.808 21.04 311.248 21.424 312.304 21.903 L308.368 35.632 C307.12 35.056 305.488 34.673 302.8 34.673 296.752 34.673 290.992 38.416 288.784 47.823 L283.601 69.999 267.28 69.999 Z M236.847 59.441 C243.471 59.441 247.984 49.839 247.984 41.487 247.984 36.016 245.2 32.56 240.017 32.56 233.489 32.56 228.88 42.065 228.88 50.513 228.88 55.985 231.759 59.441 236.847 59.441 Z M334.097 58.96 C340.624 58.96 345.136 49.745 345.136 41.776 345.136 36.401 342.351 33.04 337.743 33.04 330.543 33.04 326.415 42.544 326.415 49.743 326.415 55.599 329.009 58.96 334.097 58.96 Z M119.728 41.487 L137.105 41.487 C137.2 40.912 137.2 40.337 137.2 39.857 137.2 34.961 134.416 32.464 130.288 32.464 124.336 32.464 121.167 36.496 119.728 41.487 Z M51.087 16.433 C45.423 16.433 41.968 14.224 42.64 9.136 43.216 3.184 46.672 0.784 52.624 0.784 58.48 0.784 61.743 3.184 61.167 7.984 60.591 14.32 57.039 16.433 51.087 16.433 Z" fill="#000000" fill-opacity="1" stroke="none"/>
</svg>
